<?xml version="1.0" encoding="iso-8859-1"?>
<!-- Generator: Adobe Illustrator 18.1.1, SVG Export Plug-In . SVG Version: 6.00 Build 0)  -->
<svg version="1.1" id="Capa_1" xmlns="http://www.w3.org/2000/svg" xmlns:xlink="http://www.w3.org/1999/xlink" x="0px" y="0px"
	 viewBox="0 0 28.673 28.673" style="enable-background:new 0 0 28.673 28.673;" xml:space="preserve">
<g>
	<g id="c2_ribbon">
		<path style="fill:#030104;" d="M21.385,0H7.289c-0.232,0-0.42,0.189-0.42,0.417v27.84c0,0.168,0.1,0.318,0.26,0.384
			c0.052,0.022,0.104,0.032,0.16,0.032c0.108,0,0.215-0.041,0.293-0.125l6.755-6.747l6.752,6.747
			c0.118,0.122,0.296,0.154,0.456,0.093c0.156-0.065,0.26-0.216,0.26-0.384V0.417C21.805,0.189,21.617,0,21.385,0z M17.778,8.75
			h-2.59v2.647h-2.257V8.75h-2.622V6.495h2.622v-2.57h2.257v2.57h2.59V8.75z"/>
	</g>
</g>
<g>
</g>
<g>
</g>
<g>
</g>
<g>
</g>
<g>
</g>
<g>
</g>
<g>
</g>
<g>
</g>
<g>
</g>
<g>
</g>
<g>
</g>
<g>
</g>
<g>
</g>
<g>
</g>
<g>
</g>
</svg>
